<?xml version="1.0" encoding="UTF-8" standalone="no"?>
<svg
   xmlns:dc="http://purl.org/dc/elements/1.1/"
   xmlns:cc="http://creativecommons.org/ns#"
   xmlns:rdf="http://www.w3.org/1999/02/22-rdf-syntax-ns#"
   xmlns:svg="http://www.w3.org/2000/svg"
   xmlns="http://www.w3.org/2000/svg"
   xmlns:sodipodi="http://sodipodi.sourceforge.net/DTD/sodipodi-0.dtd"
   xmlns:inkscape="http://www.inkscape.org/namespaces/inkscape"
   id="svg8"
   version="1.1"
   viewBox="0 0 100 100"
   height="100mm"
   width="100mm"
   sodipodi:docname="Soldier.svg"
   inkscape:version="0.92.4 (5da689c313, 2019-01-14)">
  <sodipodi:namedview
     pagecolor="#ffffff"
     bordercolor="#666666"
     borderopacity="1"
     objecttolerance="10"
     gridtolerance="10"
     guidetolerance="10"
     inkscape:pageopacity="0"
     inkscape:pageshadow="2"
     inkscape:window-width="1680"
     inkscape:window-height="987"
     id="namedview12"
     showgrid="false"
     inkscape:zoom="0.62441667"
     inkscape:cx="188.97638"
     inkscape:cy="150.74224"
     inkscape:window-x="-8"
     inkscape:window-y="-8"
     inkscape:window-maximized="1"
     inkscape:current-layer="layer1" />
  <defs
     id="defs2" />
  <metadata
     id="metadata5">
    <rdf:RDF>
      <cc:Work
         rdf:about="">
        <dc:format>image/svg+xml</dc:format>
        <dc:type
           rdf:resource="http://purl.org/dc/dcmitype/StillImage" />
        <dc:title></dc:title>
      </cc:Work>
    </rdf:RDF>
  </metadata>
  <g
     transform="translate(0,-197)"
     id="layer1">
    <g
       id="g4554"
       transform="matrix(1.2353854,0,0,-1.069986,-11.76927,300.49925)">
      <path
         d="M 50,95 88.9711,72.5 v -45 L 50,5 11.0289,27.5 v 45 z"
         style="fill:#ebebeb;fill-opacity:0;fill-rule:evenodd;stroke:#0061ff;stroke-width:3;stroke-linecap:butt;stroke-linejoin:miter;stroke-miterlimit:10;stroke-dasharray:none;stroke-opacity:1"
         id="path4556" />
    </g>
    <path
       style="fill:#00ff00;stroke:#000000;stroke-width:0.26458332px;stroke-linecap:butt;stroke-linejoin:miter;stroke-opacity:1"
       d="m 28.813559,233.44068 c -3.601279,-1.80064 -0.3237,-0.47768 -2.542373,-0.84746 -0.574436,-0.0957 -1.120479,-0.32799 -1.694915,-0.42373 -0.529967,-0.0883 -2.486664,0 -2.966102,0 -0.302928,0 -2.325471,-0.0723 -2.542373,0 -0.851979,0.28399 -0.21059,1.26864 -0.423728,1.69492 -0.227748,0.45549 -0.658324,0.79835 -0.847458,1.27118 -0.104913,0.26229 0,0.56497 0,0.84746 0,0.28249 0,0.56497 0,0.84746 0,0.55176 -0.08493,2.11772 0,2.54237 0.06194,0.3097 0.347129,0.54106 0.423729,0.84746 0.117702,0.47081 -0.176554,1.76554 0,2.11864 0.141243,0.28249 0.624133,0.20041 0.847457,0.42373 0.223325,0.22333 0.234232,0.5948 0.423729,0.84746 0.239697,0.31959 0.564972,0.56497 0.847458,0.84746 0.141243,0.14124 0.245069,0.3344 0.423729,0.42372 0.126331,0.0632 0.302614,-0.0727 0.423728,0 0.605574,0.36335 1.120245,0.86071 1.694916,1.27119 0.414401,0.296 0.911086,0.48736 1.271186,0.84746 0.223325,0.22332 0.200404,0.62413 0.423729,0.84746 0.223325,0.22332 0.624133,0.2004 0.847458,0.42373 0.223324,0.22332 0.240157,0.59045 0.423728,0.84745 0.116518,0.16313 1.862868,2.48074 2.542374,2.9661 0.670174,0.4787 1.433383,0.81435 2.118643,1.27119 0.166201,0.1108 0.282485,0.28249 0.42373,0.42373 0.706213,0.70621 1.412428,1.41243 2.118643,2.11865 0.423728,0.42372 0.757341,0.96287 1.271186,1.27118 0.242231,0.14534 0.612415,-0.15669 0.847457,0 0.262787,0.17519 0.261237,0.57664 0.423731,0.84746 0.262011,0.43668 0.619709,0.81569 0.847457,1.27119 0.06284,0.12567 0,2.13252 0,2.54237 0,0.30293 0.0723,2.32547 0,2.54237 -0.06317,0.1895 -0.31293,0.25753 -0.42373,0.42373 -0.175188,0.26278 -0.248539,0.58467 -0.423727,0.84746 -0.1108,0.1662 -0.282488,0.28248 -0.423731,0.42373 -0.788238,0.78823 -1.049586,1.16038 -2.118643,1.69491 -0.12633,0.0632 -0.286702,-0.0343 -0.42373,0 -0.433313,0.10833 -0.83321,0.33614 -1.271185,0.42373 -0.277,0.0554 -0.585176,-0.10491 -0.847458,0 -0.472834,0.18913 -0.798351,0.65832 -1.271185,0.84746 -0.262282,0.10491 -0.568817,-0.0464 -0.847458,0 -0.574437,0.0957 -1.123865,0.30952 -1.694916,0.42373 -0.138501,0.0277 -0.282486,0 -0.423729,0 -0.423729,0 -0.847457,0 -1.271186,0 -1.553673,0 -3.107345,0 -4.661017,0 -0.988701,0 -1.977401,0 -2.966102,0 -0.141243,0 -0.282486,0 -0.423729,0 -0.141242,0 -0.297397,0.0632 -0.423729,0 -0.178659,-0.0893 -0.334399,-0.24507 -0.423728,-0.42373 -0.04749,-0.095 0,-1.59423 0,-1.69492 0,-0.35875 -0.07593,-1.46711 0,-1.69491 0.06317,-0.1895 0.257528,-0.31293 0.423728,-0.42373 1.088475,-0.72565 1.250754,-0.28022 2.542373,-0.42373 0.853893,-0.0949 1.716283,-0.1877 2.542373,-0.42373 0.192062,-0.0549 0.282486,-0.28249 0.423729,-0.42373 0.706215,-0.28249 1.384829,-0.64732 2.118644,-0.84746 0.828874,-0.22605 1.69991,-0.25523 2.542373,-0.42373 0.571051,-0.11421 1.120479,-0.32798 1.694916,-0.42372 0.278641,-0.0464 0.56497,0 0.847458,0 0.847458,0 1.694915,0 2.54237,0"
       id="path4540"
       inkscape:connector-curvature="0" />
    <path
       style="fill:#00ff00;stroke:#000000;stroke-width:0.26458332px;stroke-linecap:butt;stroke-linejoin:miter;stroke-opacity:1"
       d="m 53.813559,255.47457 c -0.564973,-0.28248 -1.095672,-0.64771 -1.694916,-0.84745 -0.275074,-0.0917 -2.581198,0 -2.966101,0 -0.141242,0 -0.282485,0 -0.42373,0 -0.141243,0 -0.323855,-0.0999 -0.423728,0 -0.09987,0.0999 0.06317,0.29739 0,0.42373 -0.08933,0.17866 -0.32096,0.25244 -0.42373,0.42372 -0.324985,0.54165 -0.56497,1.12995 -0.847458,1.69492 -0.141242,0.28249 -0.323852,0.54784 -0.423727,0.84746 -0.04466,0.13399 0,0.28248 0,0.42373 0,0.70621 0,1.41243 0,2.11864 0,0.42373 -0.133996,0.8692 0,1.27119 0.144002,0.43201 1.040461,0.67441 1.271185,0.84745 0.319598,0.2397 0.515059,0.62586 0.847458,0.84746 0.117523,0.0784 0.306208,-0.0783 0.42373,0 0.332399,0.2216 0.52786,0.60776 0.847458,0.84746 0.505325,0.37899 1.169344,0.49708 1.694915,0.84746 0.166198,0.1108 0.234231,0.36056 0.423728,0.42373 0.155382,0.0518 2.469674,0 2.542373,0 0.30293,0 2.325471,0.0723 2.542374,0 0.189497,-0.0632 0.257529,-0.31293 0.423727,-0.42373 0.262787,-0.17519 0.624134,-0.20041 0.847458,-0.42373 0.668885,-0.66888 -1.045819,-0.25964 0.42373,-0.84746 0.540708,-0.21628 1.195546,-0.12411 1.694916,-0.42373 0.270819,-0.16249 0.248536,-0.58467 0.423727,-0.84746 0.221599,-0.33239 0.721127,-0.46846 0.847458,-0.84745 0.08933,-0.26799 -0.126331,-0.5948 0,-0.84746 0.06317,-0.12633 0.323855,0.0999 0.42373,0 0.09987,-0.0999 0,-0.28249 0,-0.42373 0,-0.14124 0,-0.28248 0,-0.42373 0,-0.84745 0,-1.69491 0,-2.54237 0,-0.70621 0,-1.41243 0,-2.11865 0,-0.28248 0.06851,-0.5734 0,-0.84745 -0.04719,-0.18878 -0.495043,-1.15372 -0.847458,-1.27119 -0.0019,-5.3e-4 -1.270783,5.3e-4 -1.271188,0 -0.09987,-0.0999 0.09987,-0.32385 0,-0.42373 -0.09987,-0.0999 -0.297397,0.0632 -0.423727,0 -1.939243,-0.96962 1.798058,0.17563 -1.271188,-0.84746 -0.133993,-0.0447 -0.282485,0 -0.423728,0 -0.42373,0 -0.847457,0 -1.271188,0 -1.271185,0 -2.54237,0 -3.813558,0 -1.129943,0 -2.259886,0 -3.389831,0 -0.423728,0 -0.847458,0 -1.271186,0 -0.141242,0 -0.42373,0.14125 -0.42373,0 0,-0.14124 0.282488,0 0.42373,0 0.282485,0 0.564973,0 0.847458,0"
       id="path4542"
       inkscape:connector-curvature="0" />
    <path
       style="fill:#00ff00;stroke:#000000;stroke-width:0.26458332px;stroke-linecap:butt;stroke-linejoin:miter;stroke-opacity:1"
       d="m 77.966101,236.83051 c -0.33695,1.66581 0.673071,3.09153 0.847457,4.66102 0.07799,0.70189 0,1.41242 0,2.11864 0,1.55367 0,3.10734 0,4.66102 0,1.41243 0,2.82485 0,4.23728 0,0.39736 0.10042,2.56443 0,2.9661 -0.108328,0.43332 -0.315401,0.83788 -0.42373,1.27119 -0.03425,0.13703 0,0.28249 0,0.42373 0,0.70622 0,1.41243 0,2.11865 0,0.28248 0.08933,0.57946 0,0.84745 -0.06316,0.1895 -0.334399,0.24507 -0.423727,0.42373 -0.06317,0.12633 0,0.28249 0,0.42373 0,0.14124 0,0.28249 0,0.42373 0,0.34639 0.07158,2.75134 0,2.9661 -0.06317,0.1895 -0.282485,0.28249 -0.423728,0.42373 0,0.42373 0,0.84746 0,1.27119 0,0.29259 0.06441,1.56608 0,1.69491 -0.08933,0.17866 -0.282488,0.28249 -0.42373,0.42373"
       id="path4544"
       inkscape:connector-curvature="0" />
  </g>
</svg>
