<?xml version="1.0" encoding="UTF-8" standalone="no"?>
<svg
   xmlns:dc="http://purl.org/dc/elements/1.1/"
   xmlns:cc="http://creativecommons.org/ns#"
   xmlns:rdf="http://www.w3.org/1999/02/22-rdf-syntax-ns#"
   xmlns:svg="http://www.w3.org/2000/svg"
   xmlns="http://www.w3.org/2000/svg"
   xmlns:sodipodi="http://sodipodi.sourceforge.net/DTD/sodipodi-0.dtd"
   xmlns:inkscape="http://www.inkscape.org/namespaces/inkscape"
   id="svg8"
   version="1.1"
   viewBox="0 0 100 100"
   height="100mm"
   width="100mm"
   sodipodi:docname="SpacePort.svg"
   inkscape:version="0.92.4 (5da689c313, 2019-01-14)">
  <sodipodi:namedview
     pagecolor="#ffffff"
     bordercolor="#666666"
     borderopacity="1"
     objecttolerance="10"
     gridtolerance="10"
     guidetolerance="10"
     inkscape:pageopacity="0"
     inkscape:pageshadow="2"
     inkscape:window-width="1680"
     inkscape:window-height="987"
     id="namedview12"
     showgrid="false"
     inkscape:zoom="0.62441667"
     inkscape:cx="188.97638"
     inkscape:cy="150.74224"
     inkscape:window-x="-8"
     inkscape:window-y="-8"
     inkscape:window-maximized="1"
     inkscape:current-layer="layer1" />
  <defs
     id="defs2" />
  <metadata
     id="metadata5">
    <rdf:RDF>
      <cc:Work
         rdf:about="">
        <dc:format>image/svg+xml</dc:format>
        <dc:type
           rdf:resource="http://purl.org/dc/dcmitype/StillImage" />
        <dc:title />
      </cc:Work>
    </rdf:RDF>
  </metadata>
  <g
     transform="translate(0,-197)"
     id="layer1">
    <g
       id="g4554"
       transform="matrix(1.2353854,0,0,-1.069986,-11.76927,300.49925)">
      <path
         d="M 50,95 88.9711,72.5 v -45 L 50,5 11.0289,27.5 v 45 z"
         style="fill:#ebebeb;fill-opacity:0;fill-rule:evenodd;stroke:#0061ff;stroke-width:3;stroke-linecap:butt;stroke-linejoin:miter;stroke-miterlimit:10;stroke-dasharray:none;stroke-opacity:1"
         id="path4556" />
    </g>
    <path
       style="fill:#008080;stroke:#000000;stroke-width:0.26458332px;stroke-linecap:butt;stroke-linejoin:miter;stroke-opacity:1"
       d="m 30.932203,231.74576 c -0.143881,-2.43185 -1.438328,-0.50729 -2.118643,-0.84745 -1.681827,-0.84092 1.872744,-0.13393 -1.694916,-0.84746 -0.277,-0.0554 -0.564973,0 -0.847458,0 -0.423727,0 -0.847457,0 -1.271185,0 -0.141243,0 -0.286705,0.0343 -0.42373,0 -0.433314,-0.10833 -0.837872,-0.3154 -1.271186,-0.42373 -0.137025,-0.0343 -0.282486,0 -0.423729,0 -0.706215,0 -1.412429,0 -2.118644,0 -0.282486,0 -0.564972,0 -0.847458,0 -0.141243,0 -0.297397,-0.0632 -0.423728,0 -1.763458,0.88173 0.452981,-0.0292 -0.423729,0.84746 -0.101963,0.10196 -1.592953,-0.10196 -1.694915,0 -1.653701,1.6537 0.09808,0.22756 -0.423729,1.27118 -0.08933,0.17866 -0.360563,0.23423 -0.423729,0.42373 -6.35e-4,0.002 3.97e-4,1.27078 0,1.27119 -0.09987,0.0999 -0.323855,-0.0999 -0.423729,0 -0.09987,0.0999 0,0.28248 0,0.42373 0,0.84745 0,1.69491 0,2.54237 0,1.12995 0,2.25989 0,3.38983 0,0.2926 -0.06441,1.56609 0,1.69492 0.08933,0.17866 0.360563,0.23423 0.423729,0.42372 0.451977,1.35594 -0.803969,0.48172 0.423729,2.11865 0.189497,0.25266 0.672267,0.16094 0.847457,0.42373 0.156695,0.23504 -0.0554,0.57046 0,0.84746 0.713532,3.56766 0.0065,0.0131 0.847458,1.69491 0.06317,0.12633 -0.07835,0.30621 0,0.42373 0.325945,0.48892 0.945241,0.78227 1.271186,1.27119 0.175191,0.26278 0.323855,0.54783 0.423729,0.84745 0.04467,0.134 -0.09987,0.32386 0,0.42373 0.09987,0.0999 0.297398,-0.0632 0.423729,0 0.17866,0.0893 0.282486,0.28249 0.423729,0.42373 0.141243,0.14124 0.282486,0.28249 0.423729,0.42373 0.706214,0.70621 1.412429,1.41243 2.118643,2.11865 0.141243,0.14124 0.298947,0.26775 0.42373,0.42372 0.441169,0.55146 0.719725,1.25375 1.271186,1.69492 0.220585,0.17647 0.621469,-0.16949 0.847457,0 0.407408,0.30555 0.541904,0.86378 0.847458,1.27118 0.405741,0.54099 1.243375,1.24338 1.694916,1.69492 0.141242,0.14124 0.312928,0.25753 0.423727,0.42373 0.175191,0.26278 0.200406,0.62413 0.42373,0.84746 1.029153,1.02915 0.622213,-0.12601 1.271186,0.84746 0.175191,0.26278 0.323855,0.54783 0.42373,0.84745 0.08933,0.26799 -0.199747,0.64771 0,0.84746 0.09987,0.0999 0.323855,-0.0999 0.423727,0 0.125376,0.12537 -0.13123,1.43245 0,1.69492 0.08933,0.17865 0.282488,0.28248 0.423731,0.42372 0,0.28249 -0.08933,0.57947 0,0.84746 0.12633,0.379 0.721124,0.46846 0.847457,0.84746 0.09169,0.27507 0,2.5812 0,2.9661 0,0.14124 0,0.28249 0,0.42373 0,0.14124 0.09987,0.32386 0,0.42373 -0.199749,0.19974 -0.64771,-0.19975 -0.847457,0 -0.199748,0.19974 0.12633,0.59479 0,0.84746 -0.454655,0.9093 -0.462733,0.0195 -1.271188,0.42373 -0.126331,0.0632 0.09988,0.32385 0,0.42372 -0.02715,0.0272 -1.615985,0.79484 -1.694916,0.84746 -0.166198,0.1108 -0.245068,0.3344 -0.423727,0.42373 -0.338985,0.16949 -0.932204,-0.16949 -1.271186,0 -0.126333,0.0632 0,0.28249 0,0.42373 -0.141245,0.14124 -0.229946,0.37528 -0.42373,0.42373 -0.253034,0.0633 -2.681147,0 -2.966101,0 -0.358751,0 -1.467116,0.0759 -1.694916,0 -0.189497,-0.0632 -0.245069,-0.3344 -0.423728,-0.42373 -0.423729,-0.21187 -0.847458,0.42373 -1.271187,0 -0.199748,-0.19975 0,-0.56497 0,-0.84746 0,-0.14124 0,-0.28248 0,-0.42373 0,-0.14124 -0.06317,-0.2974 0,-0.42373 0.08933,-0.17866 0.312929,-0.25753 0.423729,-0.42372 0.17519,-0.26279 0.282486,-0.56498 0.423729,-0.84746"
       id="path4534"
       inkscape:connector-curvature="0" />
    <path
       style="fill:#008080;stroke:#000000;stroke-width:0.26458332px;stroke-linecap:butt;stroke-linejoin:miter;stroke-opacity:1"
       d="m 54.237288,252.50848 c 0,1.55367 0,3.10734 0,4.66101 0,0.28249 0.0554,0.57046 0,0.84746 0.82424,1.17724 -0.694259,1.08212 -0.847458,1.69491 -0.137025,0.54811 0.137025,1.14682 0,1.69492 -0.108328,0.43331 -0.301024,0.84172 -0.42373,1.27119 -0.159986,0.55995 -0.263742,1.13496 -0.423728,1.69491 -0.122703,0.42946 -0.315402,0.83787 -0.42373,1.27119 -0.03426,0.13702 0.06317,0.2974 0,0.42373 -0.08933,0.17866 -0.334399,0.24506 -0.423728,0.42372 -0.61632,1.23265 -0.304405,1.60847 -0.847457,2.96611 -0.07418,0.18546 -0.334399,0.24507 -0.423731,0.42373 -0.06316,0.12633 0,0.28248 0,0.42373 -0.282485,0.28248 -0.625856,0.51505 -0.847455,0.84745 -0.156697,0.23504 0.08933,0.57947 0,0.84746 -0.09988,0.29962 -0.323855,0.54784 -0.42373,0.84746 -0.04466,0.13399 0.141243,0.42373 0,0.42373 -0.141242,0 0,-0.28249 0,-0.42373 0,-0.84746 0,-1.69492 0,-2.54237 0,-0.98871 0,-1.97741 0,-2.96611 0,-0.42373 0,-0.84746 0,-1.27118 0,-0.28249 -0.0554,-0.57046 0,-0.84746 0.0876,-0.43798 0.360564,-0.82903 0.42373,-1.27119 0.433314,-3.03321 -0.583678,-0.36761 0.423728,-3.38983 0.87671,-2.63013 -0.03427,1.40827 0.847458,-2.11864 0.03425,-0.13703 0,-0.28249 0,-0.42373 0,-0.42373 -0.0831,-0.85569 0,-1.27119 0.06194,-0.30969 0.323855,-0.54783 0.423727,-0.84745 0.08933,-0.268 -0.08933,-0.57947 0,-0.84746 0.09987,-0.29962 0.306435,-0.55422 0.42373,-0.84746 0.165881,-0.4147 0.223981,-0.87169 0.423728,-1.27119 0.08933,-0.17866 0.334399,-0.24507 0.42373,-0.42372 0.06317,-0.12634 -0.141242,-0.42374 0,-0.42374 0.582359,0 1.510758,0.97621 1.694916,0.42374 0.325165,-0.9755 -0.847458,-1.93784 -0.847458,-2.96611 0,-0.31583 0.624133,-0.2004 0.847458,-0.42373 0.223324,-0.22332 0.200403,-0.62413 0.423727,-0.84745 0.223324,-0.22333 0.584674,-0.24854 0.847458,-0.42373 0.166201,-0.1108 0.24507,-0.3344 0.42373,-0.42373 0.126331,-0.0632 0.289732,0.0447 0.423728,0 0.299622,-0.0999 0.547835,-0.32386 0.847458,-0.42373 0.133995,-0.0447 0.323855,0.0999 0.42373,0 0.223324,-0.22333 0.160943,-0.67227 0.423727,-0.84746 0.235043,-0.15669 0.564973,0 0.847458,0 0.399084,0 1.8776,0.0803 2.118643,0 0.189497,-0.0632 0.24507,-0.3344 0.42373,-0.42373 0.195117,-0.0976 2.103205,0 2.542374,0 0.56497,0 1.129942,0 1.694915,0 0.423728,0 0.85322,-0.0697 1.271185,0 0.440571,0.0734 0.837872,0.3154 1.271186,0.42373 0.2555,0.0639 2.022673,-0.096 2.118645,0 0.09987,0.0999 -0.09987,0.32386 0,0.42373 0.09987,0.0999 0.289732,-0.0447 0.423728,0 0.299622,0.0999 0.547836,0.32386 0.847458,0.42373 0.526026,0.17534 0.461671,-0.34784 0.847458,0.42373 0.06448,0.12895 0,1.08036 0,1.27118 0,0.42373 0,0.84746 0,1.27119 0,0.14124 0.04466,0.28974 0,0.42373 -0.09987,0.29962 -0.361789,0.53776 -0.423728,0.84746 -0.0831,0.4155 0.102769,0.86011 0,1.27119 -0.04845,0.19378 -0.312931,0.25752 -0.42373,0.42372 -0.933543,0.21339 -0.223981,0.87169 -0.423728,1.27119 -0.468445,0.93689 -0.262985,0.13149 -0.847458,0.42373 -0.455496,0.22775 -0.863779,0.5419 -1.271187,0.84746 -0.775695,0.58177 -0.04167,0.43761 -1.271186,0.84745 -0.356751,0.11892 -1.866371,-0.12613 -2.118643,0 -0.17866,0.0893 -0.234233,0.36057 -0.42373,0.42373 -0.267989,0.0893 -0.564973,0 -0.847458,0 -0.141242,0 -0.297397,-0.0632 -0.423727,0 -0.455496,0.22775 -0.815692,0.61971 -1.271188,0.84746 -0.126331,0.0632 -0.282485,0 -0.423728,0 -0.706215,0 -1.41243,0 -2.118646,0 -2.118643,0 -4.237286,0 -6.355932,0"
       id="path4536"
       inkscape:connector-curvature="0" />
  </g>
</svg>
